<svg xmlns="http://www.w3.org/2000/svg" width="640" height="320" viewBox="0 0 640 320" font-family="monospace" font-size="11">
<text x="55" y="16" font-size="13">n_contributors_top100  (n=8,147)</text>
<line x1="55" y1="275" x2="628" y2="275" stroke="#888"/>
<line x1="55" y1="275" x2="55" y2="275" stroke="#888"/>
<rect x="55.0" y="266.0" width="13.8" height="9.0" fill="#4c8bf5"/>
<rect x="69.3" y="275.0" width="13.8" height="0.0" fill="#4c8bf5"/>
<rect x="83.7" y="275.0" width="13.8" height="0.0" fill="#4c8bf5"/>
<rect x="98.0" y="275.0" width="13.8" height="0.0" fill="#4c8bf5"/>
<rect x="112.3" y="275.0" width="13.8" height="0.0" fill="#4c8bf5"/>
<rect x="126.6" y="275.0" width="13.8" height="0.0" fill="#4c8bf5"/>
<rect x="140.9" y="28.0" width="13.8" height="247.0" fill="#4c8bf5"/>
<rect x="155.3" y="275.0" width="13.8" height="0.0" fill="#4c8bf5"/>
<rect x="169.6" y="275.0" width="13.8" height="0.0" fill="#4c8bf5"/>
<rect x="183.9" y="86.2" width="13.8" height="188.8" fill="#4c8bf5"/>
<rect x="198.2" y="275.0" width="13.8" height="0.0" fill="#4c8bf5"/>
<rect x="212.6" y="275.0" width="13.8" height="0.0" fill="#4c8bf5"/>
<rect x="226.9" y="122.6" width="13.8" height="152.4" fill="#4c8bf5"/>
<rect x="241.2" y="142.7" width="13.8" height="132.3" fill="#4c8bf5"/>
<rect x="255.5" y="275.0" width="13.8" height="0.0" fill="#4c8bf5"/>
<rect x="269.9" y="163.5" width="13.8" height="111.5" fill="#4c8bf5"/>
<rect x="284.2" y="185.5" width="13.8" height="89.5" fill="#4c8bf5"/>
<rect x="298.5" y="275.0" width="13.8" height="0.0" fill="#4c8bf5"/>
<rect x="312.8" y="198.5" width="13.8" height="76.5" fill="#4c8bf5"/>
<rect x="327.2" y="149.3" width="13.8" height="125.7" fill="#4c8bf5"/>
<rect x="341.5" y="224.1" width="13.8" height="50.9" fill="#4c8bf5"/>
<rect x="355.8" y="224.9" width="13.8" height="50.1" fill="#4c8bf5"/>
<rect x="370.1" y="198.5" width="13.8" height="76.5" fill="#4c8bf5"/>
<rect x="384.5" y="240.0" width="13.8" height="35.0" fill="#4c8bf5"/>
<rect x="398.8" y="208.2" width="13.8" height="66.8" fill="#4c8bf5"/>
<rect x="413.1" y="201.9" width="13.8" height="73.1" fill="#4c8bf5"/>
<rect x="427.4" y="238.8" width="13.8" height="36.2" fill="#4c8bf5"/>
<rect x="441.8" y="226.1" width="13.8" height="48.9" fill="#4c8bf5"/>
<rect x="456.1" y="230.5" width="13.8" height="44.5" fill="#4c8bf5"/>
<rect x="470.4" y="239.1" width="13.8" height="35.9" fill="#4c8bf5"/>
<rect x="484.8" y="240.3" width="13.8" height="34.7" fill="#4c8bf5"/>
<rect x="499.1" y="237.8" width="13.8" height="37.2" fill="#4c8bf5"/>
<rect x="513.4" y="242.7" width="13.8" height="32.3" fill="#4c8bf5"/>
<rect x="527.7" y="250.1" width="13.8" height="24.9" fill="#4c8bf5"/>
<rect x="542.0" y="247.4" width="13.8" height="27.6" fill="#4c8bf5"/>
<rect x="556.4" y="251.8" width="13.8" height="23.2" fill="#4c8bf5"/>
<rect x="570.7" y="253.7" width="13.8" height="21.3" fill="#4c8bf5"/>
<rect x="585.0" y="255.9" width="13.8" height="19.1" fill="#4c8bf5"/>
<rect x="599.4" y="257.4" width="13.8" height="17.6" fill="#4c8bf5"/>
<rect x="613.7" y="171.3" width="13.8" height="103.7" fill="#4c8bf5"/>
<text x="47.0" y="289">1e0</text>
<text x="190.2" y="289">1e1</text>
<text x="333.5" y="289">1e2</text>
<text x="476.8" y="289">1e3</text>
<text x="620.0" y="289">1e5</text>
<text x="55" y="314">log1p scale</text>
</svg>