<svg xmlns="http://www.w3.org/2000/svg" width="640" height="320" viewBox="0 0 640 320" font-family="monospace" font-size="11">
<text x="55" y="16" font-size="13">days_since_last_release  (n=6,101)</text>
<line x1="55" y1="275" x2="628" y2="275" stroke="#888"/>
<line x1="55" y1="275" x2="55" y2="275" stroke="#888"/>
<rect x="55.0" y="71.6" width="13.8" height="203.4" fill="#4c8bf5"/>
<rect x="69.3" y="275.0" width="13.8" height="0.0" fill="#4c8bf5"/>
<rect x="83.7" y="275.0" width="13.8" height="0.0" fill="#4c8bf5"/>
<rect x="98.0" y="275.0" width="13.8" height="0.0" fill="#4c8bf5"/>
<rect x="112.3" y="28.0" width="13.8" height="247.0" fill="#4c8bf5"/>
<rect x="126.6" y="275.0" width="13.8" height="0.0" fill="#4c8bf5"/>
<rect x="140.9" y="110.0" width="13.8" height="165.0" fill="#4c8bf5"/>
<rect x="155.3" y="275.0" width="13.8" height="0.0" fill="#4c8bf5"/>
<rect x="169.6" y="114.4" width="13.8" height="160.6" fill="#4c8bf5"/>
<rect x="183.9" y="196.4" width="13.8" height="78.6" fill="#4c8bf5"/>
<rect x="198.2" y="194.7" width="13.8" height="80.3" fill="#4c8bf5"/>
<rect x="212.6" y="185.1" width="13.8" height="89.9" fill="#4c8bf5"/>
<rect x="226.9" y="98.7" width="13.8" height="176.3" fill="#4c8bf5"/>
<rect x="241.2" y="147.6" width="13.8" height="127.4" fill="#4c8bf5"/>
<rect x="255.5" y="195.6" width="13.8" height="79.4" fill="#4c8bf5"/>
<rect x="269.9" y="174.6" width="13.8" height="100.4" fill="#4c8bf5"/>
<rect x="284.2" y="138.0" width="13.8" height="137.0" fill="#4c8bf5"/>
<rect x="298.5" y="172.0" width="13.8" height="103.0" fill="#4c8bf5"/>
<rect x="312.8" y="137.1" width="13.8" height="137.9" fill="#4c8bf5"/>
<rect x="327.2" y="144.1" width="13.8" height="130.9" fill="#4c8bf5"/>
<rect x="341.5" y="145.0" width="13.8" height="130.0" fill="#4c8bf5"/>
<rect x="355.8" y="153.7" width="13.8" height="121.3" fill="#4c8bf5"/>
<rect x="370.1" y="126.6" width="13.8" height="148.4" fill="#4c8bf5"/>
<rect x="384.5" y="122.3" width="13.8" height="152.7" fill="#4c8bf5"/>
<rect x="398.8" y="135.4" width="13.8" height="139.6" fill="#4c8bf5"/>
<rect x="413.1" y="135.4" width="13.8" height="139.6" fill="#4c8bf5"/>
<rect x="427.4" y="152.8" width="13.8" height="122.2" fill="#4c8bf5"/>
<rect x="441.8" y="107.4" width="13.8" height="167.6" fill="#4c8bf5"/>
<rect x="456.1" y="106.6" width="13.8" height="168.4" fill="#4c8bf5"/>
<rect x="470.4" y="105.7" width="13.8" height="169.3" fill="#4c8bf5"/>
<rect x="484.8" y="80.4" width="13.8" height="194.6" fill="#4c8bf5"/>
<rect x="499.1" y="80.4" width="13.8" height="194.6" fill="#4c8bf5"/>
<rect x="513.4" y="64.7" width="13.8" height="210.3" fill="#4c8bf5"/>
<rect x="527.7" y="77.7" width="13.8" height="197.3" fill="#4c8bf5"/>
<rect x="542.0" y="67.3" width="13.8" height="207.7" fill="#4c8bf5"/>
<rect x="556.4" y="62.0" width="13.8" height="213.0" fill="#4c8bf5"/>
<rect x="570.7" y="71.6" width="13.8" height="203.4" fill="#4c8bf5"/>
<rect x="585.0" y="82.1" width="13.8" height="192.9" fill="#4c8bf5"/>
<rect x="599.4" y="129.2" width="13.8" height="145.8" fill="#4c8bf5"/>
<rect x="613.7" y="186.0" width="13.8" height="89.0" fill="#4c8bf5"/>
<text x="47.0" y="289">1e0</text>
<text x="190.2" y="289">1e2</text>
<text x="333.5" y="289">1e3</text>
<text x="476.8" y="289">1e5</text>
<text x="620.0" y="289">1e7</text>
<text x="55" y="314">log1p scale</text>
</svg>